<svg xmlns="http://www.w3.org/2000/svg" width="217" height="57" fill="none"><path fill="#231815" d="M48.03 56.384H8.354A8.331 8.331 0 0 1 0 48.03V8.353A8.331 8.331 0 0 1 8.353 0h39.678a8.331 8.331 0 0 1 8.353 8.353v39.678c0 4.63-3.814 8.353-8.353 8.353Z"/><path fill="#fff" d="M27.783 18.25s5.539-3.36 8.898-5.266c3.36-1.907 5.266-2.543 7.173-2.724 1.907-.09 4.086.908 4.086.908l-6.084-3.813s-.817-.545-3.087-.273c-2.27.273-3.45.908-4.902 1.634-1.453.818-11.168 6.538-11.168 6.538l5.084 2.996ZM42.31 15.708s2.815 3.904.636 10.804c-2.18 6.9-7.264 10.805-7.627 11.077-.272.273-3.45 2.089-3.45 2.089l.09 5.447s10.17-3.54 14.437-13.347c3.813-8.625 1.362-13.256-.545-15.253-1.09-1.18-3.54-.817-3.54-.817Z"/><path fill="#fff" d="M27.783 45.034 22.7 42.038V15.344l5.084 2.906v26.784ZM12.257 37.226l-5.084-3.087V7.536l4.993 2.815.091 26.875Z"/><path fill="#fff" d="M7.173 34.139s-1.271 11.259 7.899 15.344c5.266 2.361 9.17 1 10.986-.817 1.453-1.452 1.634-3.632 1.634-3.632l-5.084-3.087s0 1.09-.817 1.907c-.908.999-2.361 1.998-5.63.363-4.176-2.179-3.995-6.99-3.995-6.99l-4.993-3.088ZM12.167 10.35l4.085-2.088-4.63-2.542-4.45 1.816 4.995 2.815Z"/><path fill="#231815" d="M211.916 43.49h1.997v.455h-.817v2.088h-.454v-2.088h-.817l.091-.454ZM214.276 43.49h.545l.817 1.635.817-1.634H217v2.542h-.454v-1.816l-.817 1.544h-.273l-.817-1.544v1.816h-.363v-2.542ZM209.192 43.672v2.543h-11.077c-2.724 0-2.724 0-2.724 2.633 0 3.904 0 3.904 3.813 3.904 1.998 0 3.995-.091 5.902 0 1.453.09 1.907-.454 1.725-1.816-.091-.817 0-1.725 0-2.724h2.815c0 1.544.09 2.996 0 4.54-.091 1.543-1.09 2.451-2.543 2.542-3.995.09-7.899.09-11.894 0-1.816 0-2.724-1.18-2.724-2.996v-5.539c0-1.997.908-2.996 2.815-3.087 4.631-.09 9.17 0 13.892 0ZM68.46 24.424h2.814v8.716a.39.39 0 0 0 .363.363h10.987a.39.39 0 0 0 .363-.363v-8.716h2.905c0 3.178.091 6.265 0 9.352 0 1.452-.999 2.36-2.36 2.36-4.359.091-8.263.091-12.712 0-1.452 0-2.36-.998-2.36-2.542-.091-2.996 0-6.083 0-9.17ZM131.834 43.672h2.815v8.535a.39.39 0 0 0 .363.363h12.712v2.633h-12.621c-2.542 0-3.359-.998-3.359-3.268.09-2.452.09-5.539.09-8.263ZM168.425 43.763h2.633v11.531h-2.633v-11.53ZM125.751 30.053s.454-.726.454-1.09c.545-2.178-.272-4.448-2.451-4.54-4.903-.18-9.806-.09-14.891-.09v11.713h13.71c3.541 0 4.086-2.633 3.541-5.085 0-.272-.363-.908-.363-.908Zm-2.996 3.36-10.805.09v-2.179h10.805a.39.39 0 0 1 .363.363v1.362a.39.39 0 0 1-.363.364Zm0-4.268-10.805.09v-2.178h10.805a.39.39 0 0 1 .363.363v1.362a.39.39 0 0 1-.363.363ZM141.549 26.603c-.908-1.816-2.269-2.18-4.085-2.18-1.907 0-3.178.364-4.086 2.18 0 0-3.45 6.174-5.448 9.533h3.541l4.903-8.898c.091-.09.182-.181.363-.181h1.635c.09 0 .272.09.363.181l4.903 8.898h3.541c-2.179-3.359-5.72-9.533-5.63-9.533ZM165.701 24.424h-2.996v9.08s-.454.09-1.09-.455c-1.543-1.452-4.994-5.629-5.448-6.083 0 0 0-.09-.09-.09a6.853 6.853 0 0 0-.636-.727c-1.089-1.09-1.725-1.634-3.723-1.816h-2.633v11.713h2.997v-9.08s.454-.09 1.089.454c1.544 1.453 4.994 5.63 5.448 6.083 0 0 0 .091.091.091.272.363.544.636.635.727 1.09 1.089 1.725 1.634 3.723 1.815h2.633V24.424ZM85.801 45.942c0-1.362-.999-2.179-2.542-2.179H68.187v11.531h15.072c1.453 0 2.451-.908 2.542-2.179v-7.173Zm-2.814 1.544V52.389a.39.39 0 0 1-.364.363H71.365a.39.39 0 0 1-.363-.363v-5.63a.39.39 0 0 1 .363-.363h11.44c.182 0 .182.182.182.363v.727ZM190.125 43.672h-2.996v9.08s-.454.09-1.09-.454c-1.544-1.453-4.994-5.63-5.448-6.083l-.091-.091a6.766 6.766 0 0 0-.635-.727c-1.09-1.09-1.725-1.634-3.723-1.816h-2.633v11.713h2.997v-9.08s.453-.09 1.089.455c1.544 1.452 4.994 5.629 5.448 6.083l.091.09c.272.364.544.636.635.727 1.09 1.09 1.725 1.634 3.723 1.816h2.633V43.672ZM108.046 43.672c-.454 2.452-1.18 5.63-1.725 8.081-.091.545-.272.908-.726.908-.545 0-.545-.363-.817-.908 0 0-1.816-4.812-2.724-6.9-.363-.818-.908-1.18-1.725-1.18h-2.18c-.817 0-1.361.362-1.725 1.18-.908 2.088-2.723 6.9-2.723 6.9-.182.545-.273.908-.817.908-.454 0-.636-.363-.727-.908-.545-2.542-1.18-5.63-1.725-8.08h-3.087c.726 3.177 1.453 6.173 2.088 9.079.273 1.27.636 2.542 2.27 2.451h2.452c.907 0 1.361-.635 1.816-1.906l2.633-6.992c.272-.726.363-.817.544-.817.182 0 .364.091.545.817l2.633 6.992c.454 1.27.908 1.906 1.816 1.906h2.452c1.634 0 1.997-1.18 2.269-2.451a603.089 603.089 0 0 1 2.089-9.08h-2.906ZM128.384 48.484h-12.983c-.273 0-.454-.181-.454-.363V46.76c0-.181.181-.363.454-.363h13.619v-2.633c-4.994 0-9.897-.09-14.891.091-2.088.09-2.633 1.998-2.633 4.358v2.27c0 2.452.182 4.994 3.723 4.994h13.71v-2.633H115.31c-.273 0-.454-.182-.454-.364v-1.543c0-.182.181-.363.454-.363h13.619v-2.089h-.545ZM149.812 43.672h2.814v8.535c0 .182.182.363.364.363h12.711v2.633H153.08c-2.542 0-3.359-.998-3.359-3.268.091-2.452.091-5.539.091-8.263ZM101.327 31.597h1.362c2.452-.091 2.724-1.362 2.724-3.541 0-1.998-.545-3.45-2.815-3.541H87.981v11.712h2.723v-4.54h6.628l4.903 4.54h3.814c0-.09-4.722-4.63-4.722-4.63Zm-10.532-2.452v-2.179h10.896a.39.39 0 0 1 .363.363v1.362a.39.39 0 0 1-.363.363l-10.896.091Z"/></svg>